<svg xmlns="http://www.w3.org/2000/svg" width="28" height="34" viewBox="0 0 28 34" fill="none">
  <path d="M18.7117 5.4234C19.977 3.91129 20.6048 1.96651 20.4626 0C18.525 0.184444 16.7335 1.11002 15.4619 2.58359C14.3773 3.83481 13.4207 5.87606 13.6684 7.79774C15.5858 7.96429 17.5117 6.83691 18.7117 5.41914" fill="white"/>
  <path d="M20.4413 7.82726C17.657 7.66499 15.2869 9.41158 13.9588 9.41158C12.6307 9.41158 10.5895 7.91268 8.40729 7.95111C6.97443 7.98853 5.57625 8.39995 4.35148 9.14455C3.12671 9.88915 2.11792 10.9411 1.42519 12.1959C-1.56409 17.3545 0.635162 25.0071 3.56039 29.2049C4.97389 31.2846 6.67351 33.5735 8.91974 33.4753C11.0549 33.3941 11.8706 32.1045 14.4499 32.1045C17.0292 32.1045 17.7723 33.4753 20.0014 33.4369C22.3288 33.3941 23.785 31.3572 25.1985 29.2775C26.1986 27.8025 26.9824 26.1918 27.5259 24.4946C27.4832 24.4519 23.0334 22.7438 22.995 17.6321C22.9523 13.3617 26.4839 11.3076 26.6504 11.1838C24.6562 8.23296 21.526 7.89986 20.4584 7.81445" fill="white"/>
</svg>
