<svg xmlns="http://www.w3.org/2000/svg" width="34" height="34" viewBox="0 0 34 34" fill="none">
  <path d="M33.1557 17.3011C33.1557 16.1515 33.0625 14.9957 32.8637 13.8647H16.9121V20.3771H26.0468C25.6678 22.4774 24.4498 24.3355 22.6664 25.5161V29.7417H28.1161C31.3164 26.7962 33.1557 22.4464 33.1557 17.3011Z" fill="#4285F4"/>
  <path d="M16.9114 33.8248C21.4726 33.8248 25.3191 32.3272 28.1216 29.7421L22.6719 25.5166C21.1556 26.5481 19.1982 27.1322 16.9177 27.1322C12.5057 27.1322 8.7648 24.1557 7.42256 20.1538H1.79883V24.5099C4.66973 30.2206 10.5172 33.8248 16.9114 33.8248Z" fill="#34A853"/>
  <path d="M7.41649 20.1534C6.70809 18.053 6.70809 15.7787 7.41649 13.6783V9.32227H1.79897C-0.599658 14.1009 -0.599658 19.7308 1.79897 24.5094L7.41649 20.1534Z" fill="#FBBC04"/>
  <path d="M16.9114 6.69369C19.3225 6.65641 21.6528 7.56366 23.3989 9.22903L28.2273 4.4007C25.1699 1.5298 21.1122 -0.0485729 16.9114 0.00113965C10.5172 0.00113965 4.66973 3.6053 1.79883 9.32224L7.41635 13.6783C8.75237 9.67023 12.4995 6.69369 16.9114 6.69369Z" fill="#EA4335"/>
</svg>
