<svg id="5c335045-162c-4fda-b76b-2f176027c4bb" data-name="Слой 1"
     xmlns="http://www.w3.org/2000/svg" viewBox="0 0 76 18.53659" class="ng-scope">
  <defs>
    <style>.e71b933f-cfa7-4eda-8f43-70ad87e933b8 {
      fill: #fff;
    }</style>
  </defs>
  <title>logo_i-Store_wh</title>
  <path class="e71b933f-cfa7-4eda-8f43-70ad87e933b8"
        d="M2.19554,4.38493A2.21233,2.21233,0,0,1,.61788,3.81235,1.84088,1.84088,0,0,1,0,2.40769,1.77819,1.77819,0,0,1,.61788,1.00716,2.28828,2.28828,0,0,1,2.19554.46341a2.2991,2.2991,0,0,1,1.59.54375,1.79784,1.79784,0,0,1,.60964,1.40053,1.84981,1.84981,0,0,1-.60964,1.42525,2.28431,2.28431,0,0,1-1.59.552ZM4.07806,19H.26773V6.34157H4.07806V19Zm9.93145-5.561h-6.599V10.76976h6.599V13.439ZM16.86,18.0361V14.17224a7.41923,7.41923,0,0,0,4.76594,1.763,5.63134,5.63134,0,0,0,1.28522-.13184,3.09711,3.09711,0,0,0,.91861-.36661,1.59988,1.59988,0,0,0,.54781-.55606,1.362,1.362,0,0,0,.18125-.69617,1.48324,1.48324,0,0,0-.28832-.90213,3.11824,3.11824,0,0,0-.79089-.73731,7.7228,7.7228,0,0,0-1.19046-.65087q-.6859-.31512-1.48295-.64259A7.51774,7.51774,0,0,1,17.78276,9.188,4.497,4.497,0,0,1,16.79,6.24685a4.68022,4.68022,0,0,1,.53958-2.32326,4.63072,4.63072,0,0,1,1.47883-1.60242,6.72709,6.72709,0,0,1,2.16672-.92268A11.09271,11.09271,0,0,1,23.58262,1.106a15.8227,15.8227,0,0,1,2.39331.16066,9.29864,9.29864,0,0,1,1.92777.50257V5.37766a5.85767,5.85767,0,0,0-.94738-.5314,7.91751,7.91751,0,0,0-1.05868-.38309,8.38091,8.38091,0,0,0-1.07921-.22243,8.13124,8.13124,0,0,0-1.01749-.07,5.43492,5.43492,0,0,0-1.20693.12359,3.1904,3.1904,0,0,0-.91855.35833,1.81391,1.81391,0,0,0-.58081.54787,1.30805,1.30805,0,0,0-.20184.71677,1.36051,1.36051,0,0,0,.22655.77854,2.64312,2.64312,0,0,0,.65082.65494A7.414,7.414,0,0,0,22.8,7.95218c.39956.19772.85683.39957,1.36347.60964a15.08207,15.08207,0,0,1,1.86192.92273,6.59388,6.59388,0,0,1,1.417,1.104,4.32523,4.32523,0,0,1,.90625,1.40877,4.9174,4.9174,0,0,1,.313,1.83716,4.93715,4.93715,0,0,1-.54787,2.4345,4.41729,4.41729,0,0,1-1.49114,1.59,6.40327,6.40327,0,0,1-2.19142.87738A12.6314,12.6314,0,0,1,21.79488,19a14.67044,14.67044,0,0,1-2.70635-.239A8.18729,8.18729,0,0,1,16.86,18.0361Zm21.1317.519A5.65925,5.65925,0,0,1,35.446,19q-4.02856,0-4.03271-4.18517V9.155H29.4114V6.34157h2.00194V3.6764l3.802-1.08745V6.34157h2.77636V9.155H35.21538v4.99255q0,1.93394,1.53237,1.93192a2.56113,2.56113,0,0,0,1.244-.35015v2.82578ZM45.93365,19a6.644,6.644,0,0,1-4.85659-1.73009,6.28017,6.28017,0,0,1-1.76715-4.70005A6.27914,6.27914,0,0,1,41.143,7.77093a6.93385,6.93385,0,0,1,4.95955-1.73009,6.56683,6.56683,0,0,1,4.82777,1.73009A6.15925,6.15925,0,0,1,52.681,12.35155a6.53724,6.53724,0,0,1-1.80426,4.86478A6.718,6.718,0,0,1,45.93365,19Zm.09889-10.03862a2.54657,2.54657,0,0,0-2.10083.92684A4.11187,4.11187,0,0,0,43.182,12.5204q0,3.55908,2.87524,3.55906,2.73721,0,2.7393-3.65378,0-3.46636-2.764-3.4643ZM63.218,10.08187A3.3051,3.3051,0,0,0,61.61148,9.707a2.3239,2.3239,0,0,0-1.94429.91032,3.98544,3.98544,0,0,0-.70024,2.4798V19H55.15663V6.64229H58.967V8.93672h.04942A3.29913,3.29913,0,0,1,62.27465,6.424a2.503,2.503,0,0,1,.94331.14419v3.51371ZM76,13.6079H67.93866q.19149,2.68779,3.39011,2.68987a6.62785,6.62785,0,0,0,3.58373-.9639v2.75165A9.42712,9.42712,0,0,1,70.45963,19a6.2672,6.2672,0,0,1-4.64651-1.66008A6.27209,6.27209,0,0,1,64.16128,12.714a6.60273,6.60273,0,0,1,1.7878-4.87714,5.94366,5.94366,0,0,1,4.39108-1.796,5.41043,5.41043,0,0,1,4.181,1.60243A6.194,6.194,0,0,1,76,12.00141V13.6079ZM72.4657,11.264q0-2.65073-2.15025-2.65276a2.04728,2.04728,0,0,0-1.5859.7579,3.4579,3.4579,0,0,0-.8156,1.89486Z"
        transform="translate(0 -0.46341)" style="fill:#fff"></path>
</svg>
