<svg width="24" height="25" viewBox="0 0 24 25" fill="none" xmlns="http://www.w3.org/2000/svg">
<path fill-rule="evenodd" clip-rule="evenodd" d="M23.2669 3.22178C23.0362 2.62481 22.5038 1.78437 21.7488 1.19225C21.3129 0.850381 20.7926 0.523538 20.0776 0.307751C19.3156 0.0777285 18.3771 0 17.2089 0H6.52757C5.35942 0 4.42089 0.0777285 3.65884 0.307751C2.94404 0.523538 2.42359 0.850381 1.98765 1.19225C1.23259 1.78437 0.700155 2.62481 0.469432 3.22178C0.0046588 4.42442 0 5.78908 0 6.64839V17.5274C0 18.3869 0.0046588 19.7514 0.469432 20.9542C0.700155 21.5511 1.23259 22.3916 1.98754 22.9836C2.42348 23.3254 2.94382 23.6523 3.65873 23.8681C4.42078 24.0981 5.35931 24.1758 6.52746 24.1758H17.2088C18.377 24.1758 19.3155 24.0981 20.0775 23.8681C20.7923 23.6523 21.3128 23.3254 21.7487 22.9836C22.5037 22.3915 23.0361 21.551 23.2668 20.9542C23.7316 19.7514 23.7363 18.3869 23.7363 17.5274V6.64839C23.7363 5.78908 23.7317 4.42442 23.2669 3.22178Z" fill="url(#paint0_linear_24_5)"/>
<path fill-rule="evenodd" clip-rule="evenodd" d="M11.8674 4.20032C7.05881 4.20032 3.16071 7.47768 3.16071 11.5206C3.16071 14.0932 4.66462 16.2321 7.00124 17.5917C7.73955 18.0213 7.05326 18.8937 6.40913 19.5806C6.0657 19.9469 6.11961 20.0605 6.56775 19.9463C8.81441 19.3734 8.87852 18.4564 9.89149 18.6515C10.5266 18.7738 11.1877 18.8408 11.8674 18.8408C16.676 18.8408 20.5741 15.5635 20.5741 11.5206C20.5741 7.47768 16.6758 4.20032 11.8674 4.20032Z" fill="white"/>
<defs>
<linearGradient id="paint0_linear_24_5" x1="11.8682" y1="0.000112977" x2="11.8682" y2="24.1758" gradientUnits="userSpaceOnUse">
<stop stop-color="#5DF877"/>
<stop offset="1" stop-color="#0ABB28"/>
</linearGradient>
</defs>
</svg>
