<svg width="16" height="16" xmlns="http://www.w3.org/2000/svg"><defs><linearGradient x1="50%" y1="3.556%" x2="50%" y2="97.988%" id="a"><stop stop-color="#00C6FF" offset="0%"/><stop stop-color="#0371FF" offset="100%"/></linearGradient></defs><path d="M7.5 0C3.375 0 0 3.105 0 6.938c0 2.16 1.065 4.087 2.737 5.362l.046 2.7 2.587-1.41-.022-.008a8.106 8.106 0 0 0 2.152.293c4.125 0 7.5-3.105 7.5-6.938C15 3.106 11.625 0 7.5 0zm.773 9.307L6.405 7.335l-3.78 1.972L6.66 5.085l1.935 1.853 3.637-1.853-3.96 4.222z" transform="translate(1)" fill="url(#a)"/></svg>