<svg xmlns="http://www.w3.org/2000/svg" width="34" height="34" viewBox="0 0 34 34" fill="none">
  <path d="M31.9558 0H1.86685C0.836516 0 0 0.834859 0 1.86688V31.9563C0 32.9883 0.836516 33.8243 1.86685 33.8243H18.0658V20.7255H13.6583V15.62H18.0658V11.8551C18.0658 7.487 20.733 5.10717 24.6304 5.10717C26.499 5.10717 28.1013 5.24697 28.5685 5.30767V9.8735L25.8652 9.87461C23.746 9.87461 23.3372 10.8821 23.3372 12.3597V15.6184H28.3931L27.732 20.7233H23.3367V33.8226H31.9552C32.9867 33.8226 33.8238 32.9856 33.8238 31.9563V1.86576C33.8232 0.834859 32.9872 0 31.9558 0Z" fill="white"/>
</svg>
