<svg width="20" height="20" viewBox="0 0 20 20" fill="none" stroke="#fff" xmlns="http://www.w3.org/2000/svg">
  <path
    d="M11.8188 14.1421C11.8188 14.1421 13.2922 13.2996 13.6779 13.0972C14.0625 12.894 14.461 12.8428 14.703 12.9904C15.0694 13.2142 18.1464 15.2586 18.4055 15.4396C18.6646 15.621 18.7894 16.1389 18.4331 16.6463C18.0784 17.1537 16.4416 19.1599 15.748 19.1384C15.0534 19.1159 12.1652 19.0527 6.71897 13.6115C1.2738 8.17211 1.20939 5.28669 1.18719 4.59287C1.165 3.89941 3.17364 2.26425 3.68162 1.90952C4.19033 1.55516 4.7096 1.68855 4.89008 1.93787C5.09532 2.22173 7.11851 5.28524 7.34121 5.63633C7.49368 5.8762 7.43764 6.27636 7.23423 6.66089C7.03191 7.04615 6.18843 8.51775 6.18843 8.51775C6.18843 8.51775 6.78301 9.53068 8.79384 11.5387C10.805 13.5472 11.8188 14.1421 11.8188 14.1421H11.8188Z"
    stroke="" stroke-width="1.52" stroke-miterlimit="10"></path>
</svg>
