<svg width="24" height="24" fill="none" xmlns="http://www.w3.org/2000/svg"><path d="M12.004.75c-4.698 0-6.072.005-6.34.027-.964.08-1.564.232-2.217.557-.504.25-.901.54-1.293.947C1.44 3.022 1.007 3.934.85 5.018c-.076.526-.098.633-.102 3.321-.002.896 0 2.075 0 3.657 0 4.694.005 6.066.027 6.333.078.938.225 1.528.537 2.174a4.74 4.74 0 0 0 3.072 2.51c.464.12.976.185 1.634.216.279.012 3.12.021 5.962.021 2.842 0 5.684-.003 5.956-.017.761-.036 1.203-.096 1.692-.222a4.711 4.711 0 0 0 3.073-2.515c.305-.63.46-1.243.53-2.132.016-.194.022-3.285.022-6.371 0-3.088-.007-6.173-.022-6.367-.071-.903-.226-1.51-.542-2.153a4.46 4.46 0 0 0-.963-1.32c-.744-.71-1.654-1.143-2.74-1.3-.525-.076-.63-.098-3.32-.103h-3.662Z" fill="url(#a)"/><path d="M12.004.75c-4.698 0-6.072.005-6.34.027-.964.08-1.564.232-2.217.557-.504.25-.901.54-1.293.947C1.44 3.022 1.007 3.934.85 5.018c-.076.526-.098.633-.102 3.321-.002.896 0 2.075 0 3.657 0 4.694.005 6.066.027 6.333.078.938.225 1.528.537 2.174a4.74 4.74 0 0 0 3.072 2.51c.464.12.976.185 1.634.216.279.012 3.12.021 5.962.021 2.842 0 5.684-.003 5.956-.017.761-.036 1.203-.096 1.692-.222a4.711 4.711 0 0 0 3.073-2.515c.305-.63.46-1.243.53-2.132.016-.194.022-3.285.022-6.371 0-3.088-.007-6.173-.022-6.367-.071-.903-.226-1.51-.542-2.153a4.46 4.46 0 0 0-.963-1.32c-.744-.71-1.654-1.143-2.74-1.3-.525-.076-.63-.098-3.32-.103h-3.662Z" fill="url(#b)"/><path d="M11.998 3.693c-2.256 0-2.54.01-3.425.05-.885.04-1.489.18-2.017.386a4.068 4.068 0 0 0-1.472.958 4.078 4.078 0 0 0-.959 1.471c-.206.529-.346 1.133-.386 2.017-.04.886-.05 1.17-.05 3.426 0 2.256.01 2.539.05 3.425.041.884.181 1.488.387 2.016a4.07 4.07 0 0 0 .958 1.472c.462.462.925.747 1.471.96.529.205 1.133.345 2.017.385.886.04 1.17.05 3.426.05 2.256 0 2.538-.01 3.425-.05.884-.04 1.489-.18 2.017-.386a4.066 4.066 0 0 0 1.471-.959c.462-.462.746-.925.959-1.471.204-.529.344-1.133.386-2.017.04-.886.05-1.169.05-3.425s-.01-2.54-.05-3.426c-.042-.884-.182-1.488-.386-2.016a4.078 4.078 0 0 0-.959-1.472 4.062 4.062 0 0 0-1.471-.958c-.53-.206-1.134-.346-2.019-.386-.886-.04-1.168-.05-3.425-.05h.002Zm-.745 1.497h.745c2.219 0 2.482.008 3.358.048.81.037 1.25.172 1.542.286.388.15.664.33.955.621.29.29.47.568.622.956.113.292.249.732.286 1.542.04.876.048 1.139.048 3.356 0 2.217-.008 2.48-.048 3.356-.037.81-.172 1.25-.286 1.543a2.57 2.57 0 0 1-.622.954c-.29.29-.567.47-.955.621-.292.115-.732.25-1.542.287-.876.04-1.14.048-3.358.048s-2.481-.009-3.357-.048c-.81-.038-1.25-.173-1.543-.287a2.573 2.573 0 0 1-.955-.621c-.29-.291-.471-.567-.622-.955-.114-.293-.25-.732-.286-1.542-.04-.876-.048-1.14-.048-3.358 0-2.219.008-2.48.048-3.356.037-.81.172-1.25.286-1.543.15-.388.331-.665.622-.955.29-.291.568-.471.955-.622.293-.114.733-.25 1.543-.287.767-.034 1.064-.045 2.612-.046v.002Zm5.18 1.38a.997.997 0 1 0 0 1.993.997.997 0 0 0 0-1.994Zm-4.435 1.164A4.267 4.267 0 1 0 12 16.268a4.267 4.267 0 0 0 0-8.534Zm0 1.497a2.77 2.77 0 1 1 0 5.54 2.77 2.77 0 0 1 0-5.54Z" fill="#fff"/><defs><radialGradient id="a" cx="0" cy="0" r="1" gradientUnits="userSpaceOnUse" gradientTransform="matrix(0 -22.2992 20.7456 0 6.725 24.983)"><stop stop-color="#FD5"/><stop offset=".1" stop-color="#FD5"/><stop offset=".5" stop-color="#FF543E"/><stop offset="1" stop-color="#C837AB"/></radialGradient><radialGradient id="b" cx="0" cy="0" r="1" gradientUnits="userSpaceOnUse" gradientTransform="rotate(78.678 -2.958 -.659) scale(9.96792 41.0985)"><stop stop-color="#3771C8"/><stop offset=".128" stop-color="#3771C8"/><stop offset="1" stop-color="#60F" stop-opacity="0"/></radialGradient></defs></svg>