<svg width="24" height="24" fill="none" xmlns="http://www.w3.org/2000/svg"><path d="M14.243 1.5H8.257C2.797 1.5 1.5 2.797 1.5 8.257v5.986C1.5 19.703 2.797 21 8.257 21h5.986C19.703 21 21 19.703 21 14.243V8.257c0-5.46-1.297-6.757-6.757-6.757Zm3.003 13.913h-1.423c-.537 0-.702-.438-1.648-1.404-.858-.809-1.229-.926-1.433-.926-.283 0-.37.078-.37.487v1.278c0 .341-.108.555-1.015.555-1.501 0-3.168-.916-4.338-2.603-1.765-2.476-2.243-4.348-2.243-4.719 0-.204.068-.4.478-.4h1.433c.36 0 .497.157.634.546.702 2.048 1.872 3.803 2.35 3.803.185 0 .263-.088.263-.536V9.398c-.049-.956-.566-1.044-.566-1.385 0-.175.137-.332.361-.332h2.233c.302 0 .41.157.41.527v2.818c0 .302.126.41.223.41.176 0 .332-.108.654-.44 1.024-1.14 1.755-2.905 1.755-2.905.097-.205.253-.4.633-.4h1.395c.429 0 .526.224.429.527-.176.829-1.911 3.276-1.892 3.276-.156.244-.214.35 0 .633.146.205.644.634.975 1.014.605.693 1.073 1.268 1.2 1.668.107.4-.088.604-.498.604Z" fill="#2787F5"/></svg>